<?xml version="1.0" standalone="no"?><!DOCTYPE svg PUBLIC "-//W3C//DTD SVG 1.1//EN" "http://www.w3.org/Graphics/SVG/1.1/DTD/svg11.dtd"><svg t="1723471498317" class="icon" viewBox="0 0 1024 1024" version="1.1" xmlns="http://www.w3.org/2000/svg" p-id="8194" xmlns:xlink="http://www.w3.org/1999/xlink" width="200" height="200"><path d="M511.872 74.688a32 32 0 0 1 28.8 17.728l124.608 251.2 278.016 40.512a32 32 0 0 1 17.792 54.528l-202.24 198.016 48 275.2a32 32 0 0 1-46.528 33.728L512 813.184l-248.32 132.416a32 32 0 0 1-46.528-33.792l48.32-275.136L62.976 438.72a32 32 0 0 1 17.792-54.592l279.488-40.512 123.008-251.008a32 32 0 0 1 28.608-17.92z m0.32 104.32L410.24 386.944a32 32 0 0 1-24.128 17.6l-232.192 33.664 168.32 164.48a32 32 0 0 1 9.152 28.48l-39.936 227.008 205.44-109.44a32 32 0 0 1 30.08 0l205.568 109.504-39.68-227.136a32 32 0 0 1 9.152-28.352l168.064-164.608-230.656-33.6a32 32 0 0 1-24.064-17.472l-103.232-208z" p-id="8195"></path></svg>